<svg width="241" height="49" viewBox="0 0 241 49" fill="none" xmlns="http://www.w3.org/2000/svg">
<path d="M1.36258 25.0723H35.6607C36.4004 25.0723 37.0233 25.6952 37.0233 26.4348V44.1095C37.0233 44.8492 36.4004 45.4721 35.6607 45.4721H22.3074C21.5677 45.4721 20.9448 44.8492 20.9448 44.1095V33.7539C20.9448 33.0142 20.3219 32.3913 19.5822 32.3913H17.5189C16.7792 32.3913 16.1563 33.0142 16.1563 33.7539V44.1095C16.1563 44.8492 15.5334 45.4721 14.7937 45.4721H1.36258C0.622894 45.4721 0 44.8492 0 44.1095V26.4348C0 25.6562 0.622894 25.0723 1.36258 25.0723Z" fill="#EEDBB5"/>
<path d="M103.634 45.4721H81.4824C80.7427 45.4721 80.1198 44.8492 80.1198 44.1095V26.4348C80.1198 25.6952 80.7427 25.0723 81.4824 25.0723H94.8746C95.6143 25.0723 96.2372 25.6952 96.2372 26.4348V36.7905C96.2372 37.5302 96.8601 38.153 97.5998 38.153H99.6242C100.364 38.153 100.987 37.5302 100.987 36.7905V26.4348C100.987 25.6952 101.61 25.0723 102.349 25.0723H115.742C116.481 25.0723 117.104 25.6952 117.104 26.4348V36.7905C117.104 37.5302 117.727 38.153 118.467 38.153C119.206 38.153 119.829 38.7759 119.829 39.5156V47.3407C119.829 48.0804 119.206 48.7033 118.467 48.7033H106.32C105.581 48.7033 104.958 48.0804 104.958 47.3407V46.8346C104.997 46.095 104.374 45.4721 103.634 45.4721Z" fill="#EEDBB5"/>
<path d="M181.652 39.3599H179.627C178.887 39.3599 178.265 39.9828 178.265 40.7225V44.1095C178.265 44.8492 177.642 45.4721 176.902 45.4721H163.51C162.77 45.4721 162.147 44.8492 162.147 44.1095V26.4348C162.147 25.6952 162.77 25.0723 163.51 25.0723H176.902C177.642 25.0723 178.265 25.6952 178.265 26.4348V29.744C178.265 30.4837 178.887 31.1066 179.627 31.1066H181.652C182.391 31.1066 183.014 30.4837 183.014 29.744V26.4348C183.014 25.6952 183.637 25.0723 184.377 25.0723H197.769C198.509 25.0723 199.132 25.6952 199.132 26.4348V44.1095C199.132 44.8492 198.509 45.4721 197.769 45.4721H184.377C183.637 45.4721 183.014 44.8492 183.014 44.1095V40.7225C183.014 39.9439 182.391 39.3599 181.652 39.3599Z" fill="#EEDBB5"/>
<path d="M78.4847 43.6034L71.6329 25.9287C71.4382 25.3837 70.9321 25.0723 70.3481 25.0723H46.7949C46.211 25.0723 45.7049 25.4226 45.5102 25.9287L38.6584 43.6034C38.308 44.4988 38.9698 45.4721 39.9431 45.4721H54.3086C54.9315 45.4721 55.5155 45.0438 55.6323 44.4209L55.7101 44.0316C55.8658 43.4087 56.4109 42.9805 57.0338 42.9805H60.1093C60.7322 42.9805 61.3162 43.4087 61.433 44.0316L61.5108 44.4209C61.6665 45.0438 62.2116 45.4721 62.8345 45.4721H77.2C78.1732 45.4721 78.8351 44.4988 78.4847 43.6034ZM59.175 37.4912H57.9681C57.5788 37.4912 57.3063 37.1408 57.3841 36.7905L58.4353 32.1966H58.6689L59.72 36.7905C59.8368 37.1408 59.5643 37.4912 59.175 37.4912Z" fill="#EEDBB5"/>
<path d="M160.551 43.6034L153.699 25.9287C153.505 25.3837 152.998 25.0723 152.414 25.0723H128.861C128.277 25.0723 127.771 25.4226 127.577 25.9287L120.686 43.6034C120.335 44.4988 120.997 45.4721 121.971 45.4721H136.336C136.959 45.4721 137.543 45.0438 137.66 44.4209L137.738 44.0316C137.893 43.4087 138.438 42.9805 139.061 42.9805H142.137C142.76 42.9805 143.344 43.4087 143.46 44.0316L143.538 44.4209C143.694 45.0438 144.239 45.4721 144.862 45.4721H159.227C160.201 45.4721 160.862 44.4988 160.551 43.6034ZM141.202 37.4912H139.996C139.606 37.4912 139.334 37.1408 139.412 36.7905L140.463 32.1966H140.696L141.747 36.7905C141.864 37.1408 141.592 37.4912 141.202 37.4912Z" fill="#EEDBB5"/>
<path d="M240.593 43.6034L233.741 25.9287C233.546 25.3837 233.04 25.0723 232.456 25.0723H208.903C208.319 25.0723 207.813 25.4226 207.618 25.9287L200.728 43.6034C200.377 44.4988 201.039 45.4721 202.012 45.4721H216.378C217.001 45.4721 217.585 45.0438 217.702 44.4209L217.779 44.0316C217.935 43.4087 218.48 42.9805 219.103 42.9805H222.179C222.802 42.9805 223.385 43.4087 223.502 44.0316L223.58 44.4209C223.736 45.0438 224.281 45.4721 224.904 45.4721H239.269C240.281 45.4721 240.943 44.4988 240.593 43.6034ZM221.283 37.4912H220.076C219.687 37.4912 219.415 37.1408 219.492 36.7905L220.544 32.1966H220.777L221.828 36.7905C221.945 37.1408 221.634 37.4912 221.283 37.4912Z" fill="#EEDBB5"/>
<path d="M127.849 14.7161H125.825C125.085 14.7161 124.462 15.339 124.462 16.0787V19.4657C124.462 20.2054 123.839 20.8283 123.099 20.8283H109.707C108.968 20.8283 108.345 20.2054 108.345 19.4657V1.79105C108.345 1.05136 108.968 0.428467 109.707 0.428467H123.099C123.839 0.428467 124.462 1.05136 124.462 1.79105V5.10017C124.462 5.83986 125.085 6.46276 125.825 6.46276H127.849C128.589 6.46276 129.212 5.83986 129.212 5.10017V1.79105C129.212 1.05136 129.835 0.428467 130.574 0.428467H143.966C144.706 0.428467 145.329 1.05136 145.329 1.79105V19.4657C145.329 20.2054 144.706 20.8283 143.966 20.8283H130.574C129.835 20.8283 129.212 20.2054 129.212 19.4657V16.0787C129.212 15.339 128.589 14.7161 127.849 14.7161Z" fill="#EEDBB5"/>
<path d="M205.594 14.1707H205.322C204.582 14.1707 203.959 14.7936 203.959 15.5333V19.4653C203.959 20.205 203.336 20.8279 202.596 20.8279H189.204C188.464 20.8279 187.842 20.205 187.842 19.4653V1.79067C187.842 1.05099 188.464 0.428091 189.204 0.428091H202.596C203.336 0.428091 203.959 1.05099 203.959 1.79067V5.76162C203.959 6.50131 204.582 7.12421 205.322 7.12421H205.594C206.178 7.12421 206.684 6.7349 206.879 6.18986L208.514 1.3235C208.709 0.778469 209.215 0.38916 209.799 0.38916H223.658C224.67 0.38916 225.332 1.40136 224.904 2.33571L221.517 10.044C221.361 10.4333 221.361 10.8616 221.556 11.2119L225.332 18.8813C225.799 19.7767 225.137 20.8668 224.086 20.8668H209.915C209.331 20.8668 208.825 20.5164 208.631 19.9714L206.879 15.105C206.684 14.5211 206.178 14.1707 205.594 14.1707Z" fill="#EEDBB5"/>
<path d="M184.571 4.98315C183.365 3.42592 181.301 2.18013 178.381 1.32365C175.462 0.42824 171.53 0 166.624 0C161.719 0 157.787 0.42824 154.867 1.32365C151.947 2.18013 149.884 3.42592 148.638 4.98315C147.431 6.54039 146.808 8.448 146.808 10.6671C146.808 12.8861 147.431 14.7937 148.638 16.351C149.845 17.9082 151.947 19.154 154.867 20.0105C157.787 20.867 161.719 21.3341 166.624 21.3341C171.53 21.3341 175.462 20.9059 178.381 20.0105C181.301 19.154 183.365 17.9082 184.571 16.351C185.778 14.7937 186.401 12.8861 186.401 10.6671C186.362 8.448 185.778 6.54039 184.571 4.98315ZM169.077 12.8083C168.921 13.2754 168.688 13.6258 168.298 13.8205C167.909 14.0151 167.364 14.093 166.624 14.093C165.885 14.093 165.34 14.0151 164.95 13.8205C164.561 13.6258 164.288 13.2754 164.133 12.8083C163.977 12.3411 163.899 11.6014 163.899 10.6671C163.899 9.73272 163.977 9.03197 164.133 8.52587C164.288 8.05869 164.561 7.70832 164.95 7.51366C165.34 7.31901 165.885 7.24115 166.624 7.24115C167.364 7.24115 167.909 7.35794 168.298 7.51366C168.688 7.70832 168.921 8.05869 169.077 8.52587C169.233 8.99304 169.31 9.73272 169.31 10.6671C169.272 11.6014 169.233 12.3022 169.077 12.8083Z" fill="#EEDBB5"/>
<path d="M49.1308 2.41394C47.4178 1.09029 44.9263 0.428467 41.5782 0.428467H16.0006C15.2609 0.428467 14.638 1.05136 14.638 1.79105V19.4657C14.638 20.2054 15.2609 20.8283 16.0006 20.8283H29.3928C30.1325 20.8283 30.7554 20.2054 30.7554 19.4657V18.142C30.7554 17.4023 31.3783 16.7794 32.118 16.7794H41.6171C44.8873 16.7794 47.4178 16.1176 49.1308 14.8329C50.8438 13.5482 51.7002 11.4848 51.7002 8.68182C51.7002 5.83986 50.8438 3.73759 49.1308 2.41394ZM33.3638 10.4337H32.0791C31.6119 10.4337 31.2615 10.3169 31.0279 10.0444C30.8722 9.77188 30.7554 9.34364 30.7554 8.75968C30.7554 8.13678 30.8333 7.70854 31.0279 7.43603C31.2226 7.16351 31.534 7.04672 32.0012 7.04672H33.3249C34.2592 7.04672 35.0378 7.82534 35.0378 8.75968C35.1157 9.65509 34.3371 10.4337 33.3638 10.4337Z" fill="#EEDBB5"/>
<path d="M86.5045 7.86354C84.9862 6.69561 82.5335 6.07271 79.1465 6.07271H70.5428C69.8031 6.07271 69.1802 5.44982 69.1802 4.71013V1.79032C69.1802 1.05063 68.5573 0.427734 67.8176 0.427734H54.4254C53.6857 0.427734 53.0628 1.05063 53.0628 1.79032V19.4649C53.0628 20.2046 53.6857 20.8275 54.4254 20.8275H79.1465C82.5335 20.8275 84.9862 20.2436 86.5045 19.1146C88.0228 17.9856 88.7625 16.1169 88.7625 13.5474C88.7625 10.9391 88.0228 9.03146 86.5045 7.86354ZM72.4115 14.6764H70.6207C70.2314 14.6764 69.9588 14.5597 69.8031 14.4039C69.6474 14.2093 69.5695 13.8978 69.5695 13.4307C69.5695 12.9635 69.6474 12.6131 69.8031 12.4185C69.9588 12.2238 70.2314 12.107 70.6207 12.107H72.4115C73.1122 12.107 73.6962 12.691 73.6962 13.3917C73.7351 14.0925 73.1512 14.6764 72.4115 14.6764Z" fill="#EEDBB5"/>
<path d="M104.88 0.427734H91.4876C90.748 0.427734 90.1251 1.05063 90.1251 1.79032V19.4649C90.1251 20.2046 90.748 20.8275 91.4876 20.8275H104.88C105.62 20.8275 106.242 20.2046 106.242 19.4649V1.79032C106.242 1.05063 105.62 0.427734 104.88 0.427734Z" fill="#EEDBB5"/>
</svg>
