<svg width="26" height="24" viewBox="0 0 26 24" fill="none" xmlns="http://www.w3.org/2000/svg">
<path d="M0 11.7238C0.0241312 11.6235 0.039372 11.5206 0.0736638 11.4241C0.314976 10.7345 1.12147 10.4309 1.75523 10.7929C1.87335 10.8602 1.97495 10.9567 2.07783 11.0469C2.17689 11.1345 2.2658 11.2336 2.37248 11.3403C2.37883 11.2577 2.38391 11.1917 2.38772 11.1256C2.42582 10.4411 2.52235 9.76539 2.68111 9.09988C2.94909 7.9746 3.36948 6.91029 3.94736 5.90821C4.37665 5.16268 4.88467 4.47303 5.46636 3.83927C6.09631 3.15216 6.79612 2.54253 7.56959 2.01926C8.49928 1.39058 9.50136 0.910498 10.5682 0.5625C11.2528 0.340238 11.9526 0.18656 12.6651 0.0951157C13.4144 -0.000139194 14.1663 -0.0230004 14.9207 0.022722C16.0524 0.0900355 17.151 0.318647 18.2153 0.706017C19.2872 1.0972 20.2868 1.62681 21.2037 2.30757C22.2884 3.11406 23.2143 4.0755 23.9738 5.19316C24.6329 6.16222 25.1295 7.21002 25.4762 8.33022C25.7518 9.21927 25.9157 10.1286 25.9754 11.0583C26.0262 11.8508 25.9982 12.6408 25.8928 13.4283C25.7785 14.2779 25.5702 15.106 25.273 15.91C24.5643 17.824 23.4314 19.4433 21.8908 20.7794C20.9929 21.558 19.9997 22.1828 18.91 22.6553C17.9752 23.0604 17.0049 23.3424 15.9977 23.4973C15.1849 23.6231 14.3682 23.665 13.5478 23.6218C12.2955 23.5558 11.0851 23.2941 9.91413 22.842C8.83076 22.4229 7.83122 21.8564 6.91678 21.1414C6.51925 20.8302 6.13569 20.5038 5.7915 20.1342C5.2314 19.5322 5.46128 18.5441 6.2284 18.2469C6.66911 18.0767 7.07934 18.1516 7.43877 18.4577C7.66103 18.647 7.86551 18.8565 8.08778 19.047C8.95269 19.7862 9.92429 20.3438 10.9962 20.7261C11.7113 20.9813 12.4441 21.1503 13.1998 21.2265C13.8844 21.2963 14.5676 21.2912 15.2522 21.2163C16.2543 21.1058 17.2107 20.8366 18.1264 20.4187C18.9519 20.0415 19.7051 19.5525 20.3896 18.9556C21.1936 18.2532 21.868 17.4429 22.3963 16.5145C22.9285 15.5798 23.2968 14.5853 23.4873 13.5248C23.6359 12.7018 23.6778 11.8737 23.6092 11.0393C23.5127 9.84414 23.1965 8.70997 22.6681 7.63422C22.2274 6.73502 21.6533 5.93107 20.9535 5.21475C19.9667 4.20505 18.8135 3.44809 17.4888 2.95403C16.7915 2.69367 16.0739 2.5184 15.336 2.42823C14.5931 2.33678 13.8501 2.33678 13.1071 2.42061C11.6338 2.58698 10.2774 3.0785 9.03397 3.87991C8.27702 4.36889 7.60769 4.96074 7.01965 5.64276C6.00487 6.8163 5.32792 8.16257 4.97104 9.67141C4.84911 10.1845 4.77418 10.7065 4.74496 11.2336C4.74369 11.2539 4.74496 11.2742 4.74496 11.306C4.76656 11.2869 4.7818 11.2768 4.79323 11.2641C4.88467 11.1726 4.97485 11.0812 5.06756 10.9897C5.53113 10.5351 6.22967 10.5173 6.70849 10.9491C7.17333 11.3669 7.22286 12.1163 6.80247 12.5811C6.56243 12.8466 6.30333 13.093 6.05059 13.3457C5.50192 13.8956 4.95071 14.443 4.40459 14.9955C3.9245 15.4807 3.17389 15.4845 2.69254 15.0019C1.92923 14.236 1.16465 13.4702 0.398801 12.7069C0.19051 12.4998 0.0482625 12.2611 0.0114306 11.9639C0.0101605 11.9512 0.0038102 11.9397 0 11.927C0 11.8597 0 11.7911 0 11.7238Z" fill="#D0D1CE"/>
</svg>
